<?xml version="1.0" ?><!DOCTYPE svg  PUBLIC '-//W3C//DTD SVG 1.1//EN'  'http://www.w3.org/Graphics/SVG/1.1/DTD/svg11.dtd'><svg height="32" version="1.1" viewBox="0 0 32 32" width="32" xmlns="http://www.w3.org/2000/svg" xmlns:xlink="http://www.w3.org/1999/xlink"><path d="M28.994 2h-8.663c-0.556 0-1.006 0.45-1.006 1.006s0.45 1.006 1.006 1.006h6.512l-11.731 11.744c-0.188 0.188-0.294 0.444-0.294 0.712s0.106 0.525 0.294 0.712 0.444 0.294 0.713 0.294c0.269 0 0.525-0.106 0.713-0.294l11.444-11.444v5.931c0 0.556 0.45 1.006 1.006 1.006s1.006-0.45 1.006-1.006v-8.662c0.006-0.556-0.444-1.006-1-1.006v0z" fill="#333"/><path d="M23.012 17.156c-0.556 0-1.006 0.45-1.006 1.006v9.819h-17.988v-17.988h9.819c0.556 0 1.006-0.45 1.006-1.006s-0.45-1.006-1.006-1.006h-10.831c-0.556 0-1.006 0.45-1.006 1.006v20.006c0 0.556 0.45 1.006 1.006 1.006h20.006c0.556 0 1.006-0.45 1.006-1.006v-10.831c0.006-0.55-0.45-1.006-1.006-1.006z" fill="#333"/></svg>